<svg width="20" height="20" viewBox="0 0 20 20" fill="none" xmlns="http://www.w3.org/2000/svg">
<path d="M12.5 20H7.50001V17.0725C6.63105 16.7651 5.82622 16.3001 5.12584 15.7008L2.58917 17.1667L0.0891724 12.8333L2.62501 11.3708C2.45843 10.4645 2.45843 9.53546 2.62501 8.62917L0.0891724 7.16667L2.58917 2.83333L5.12584 4.29917C5.82622 3.69994 6.63105 3.23495 7.50001 2.9275V0H12.5V2.9275C13.369 3.23495 14.1738 3.69994 14.8742 4.29917L17.4108 2.83333L19.9108 7.16667L17.375 8.62917C17.5416 9.53546 17.5416 10.4645 17.375 11.3708L19.9108 12.8333L17.4108 17.1667L14.8742 15.7017C14.1737 16.3006 13.3689 16.7653 12.5 17.0725V20ZM9.16667 18.3333H10.8333V15.8108L11.4592 15.6492C12.4858 15.3832 13.4203 14.8418 14.1617 14.0833L14.6142 13.6225L16.8 14.885L17.6333 13.4417L15.45 12.1808L15.6217 11.5592C15.9039 10.5366 15.9039 9.45672 15.6217 8.43417L15.45 7.8125L17.6333 6.55167L16.8 5.10833L14.6142 6.37417L14.1617 5.91667C13.4199 5.15945 12.4855 4.61918 11.4592 4.35417L10.8333 4.18917V1.66667H9.16667V4.18917L8.54084 4.35083C7.51416 4.61679 6.57968 5.15824 5.83834 5.91667L5.38584 6.3775L3.20001 5.11167L2.36667 6.555L4.55001 7.81583L4.37834 8.4375C4.09614 9.46005 4.09614 10.5399 4.37834 11.5625L4.55001 12.1842L2.36667 13.445L3.20001 14.8883L5.38584 13.6258L5.83834 14.0867C6.58008 14.8439 7.51453 15.3841 8.54084 15.6492L9.16667 15.8108V18.3333ZM10 13.3333C9.34073 13.3333 8.69627 13.1378 8.14811 12.7716C7.59994 12.4053 7.1727 11.8847 6.92041 11.2756C6.66811 10.6665 6.6021 9.9963 6.73072 9.3497C6.85934 8.7031 7.17681 8.10915 7.64298 7.64298C8.10916 7.1768 8.7031 6.85933 9.3497 6.73072C9.99631 6.6021 10.6665 6.66811 11.2756 6.9204C11.8847 7.17269 12.4053 7.59994 12.7716 8.1481C13.1378 8.69626 13.3333 9.34073 13.3333 10C13.3333 10.8841 12.9822 11.7319 12.357 12.357C11.7319 12.9821 10.8841 13.3333 10 13.3333ZM10 8.33333C9.67037 8.33333 9.34814 8.43108 9.07406 8.61422C8.79997 8.79735 8.58635 9.05765 8.46021 9.36219C8.33406 9.66674 8.30105 10.0018 8.36536 10.3252C8.42967 10.6485 8.58841 10.9454 8.8215 11.1785C9.05458 11.4116 9.35155 11.5703 9.67486 11.6346C9.99816 11.699 10.3333 11.6659 10.6378 11.5398C10.9424 11.4137 11.2027 11.2 11.3858 10.926C11.5689 10.6519 11.6667 10.3296 11.6667 10C11.6667 9.55797 11.4911 9.13405 11.1785 8.82149C10.866 8.50893 10.442 8.33333 10 8.33333Z" fill="current"/>
</svg>
