<svg width="20" height="19" viewBox="0 0 20 19" fill="none" xmlns="http://www.w3.org/2000/svg">
<path d="M11.6825 3.00829C12.425 2.31079 13.5858 2.13996 14.4942 2.59579L17.3033 4.00079H20V2.33413H17.6967L15.24 1.10496C13.72 0.344126 11.7792 0.626626 10.5392 1.79496L10.0242 2.27996L9.44083 1.74829C8.675 1.05079 7.68333 0.666626 6.61583 0.666626C5.97333 0.666626 5.3325 0.818293 4.76 1.10413L2.3025 2.33329H0V3.99996H2.69667L5.50667 2.59496C6.35833 2.16663 7.555 2.28246 8.31833 2.97996L8.8075 3.42579L6.6025 5.50246C5.70833 6.39579 5.56583 7.80829 6.27083 8.78413C6.70417 9.38663 7.43667 9.83329 8.3075 9.83329C8.96833 9.83329 9.6025 9.57329 10.0608 9.11413L10.8992 8.31163L16.185 12.2758L10 16.9008L2.7775 11.5H0V13.1666H2.2225L10 18.9825L17.7775 13.1666H20V11.5H17.9275L12.1192 7.14413L13.5258 5.79746L12.3733 4.59329L8.89583 7.92246C8.7225 8.09579 8.48667 8.18496 8.23917 8.16413C7.99083 8.14413 7.7725 8.01829 7.62333 7.80996C7.395 7.49329 7.465 6.99746 7.76333 6.69829L11.6825 3.00829Z" fill="current"/>
</svg>
