<svg width="250" height="120" viewBox="0 0 250 120" fill="none" xmlns="http://www.w3.org/2000/svg">
<rect width="250" height="120" fill="#55A3FF"/>
<g clip-path="url(#clip0_208_1538)">
<path d="M212.5 113L187.5 94.25V72.9166L154.167 35.4166V25.5C154.167 22.1847 155.483 19.0053 157.828 16.6611C160.172 14.3169 163.351 13 166.667 13H233.333C236.648 13 239.828 14.3169 242.172 16.6611C244.516 19.0053 245.833 22.1847 245.833 25.5V35.4166L212.5 72.9166V113ZM195.833 90.0833L204.167 96.3333V69.75L237.5 32.25V25.5C237.5 24.3949 237.061 23.3351 236.279 22.5537C235.498 21.7723 234.438 21.3333 233.333 21.3333H166.667C165.561 21.3333 164.502 21.7723 163.72 22.5537C162.939 23.3351 162.5 24.3949 162.5 25.5V32.25L195.833 69.75V90.0833Z" fill="white" fill-opacity="0.2"/>
</g>
<defs>
<clipPath id="clip0_208_1538">
<rect width="100" height="100" fill="white" transform="translate(150 13)"/>
</clipPath>
</defs>
</svg>
