<svg width="252" height="120" viewBox="0 0 252 120" fill="none" xmlns="http://www.w3.org/2000/svg">
<rect width="251" height="120" transform="translate(0.666504)" fill="#F7F7F7"/>
<g clip-path="url(#clip0_208_1545)">
<path d="M213.166 113L188.166 94.25V72.9166L154.833 35.4166V25.5C154.833 22.1847 156.15 19.0053 158.494 16.6611C160.838 14.3169 164.018 13 167.333 13H234C237.315 13 240.494 14.3169 242.839 16.6611C245.183 19.0053 246.5 22.1847 246.5 25.5V35.4166L213.166 72.9166V113ZM196.5 90.0833L204.833 96.3333V69.75L238.166 32.25V25.5C238.166 24.3949 237.727 23.3351 236.946 22.5537C236.165 21.7723 235.105 21.3333 234 21.3333H167.333C166.228 21.3333 165.168 21.7723 164.387 22.5537C163.605 23.3351 163.166 24.3949 163.166 25.5V32.25L196.5 69.75V90.0833Z" fill="white" fill-opacity="0.8"/>
</g>
<defs>
<clipPath id="clip0_208_1545">
<rect width="100" height="100" fill="white" transform="translate(150.667 13)"/>
</clipPath>
</defs>
</svg>
